<svg xmlns="http://www.w3.org/2000/svg" width="256" height="256" viewBox="0 0 100 100"><rect width="100" height="100" rx="20" fill="#9013fe"></rect><path fill="#ffffff" d="M24.48 17.38L24.48 17.38L24.48 38.88Q24.48 48.78 17.65 49.95L17.65 49.95Q24.48 50.67 24.48 60.39L24.48 60.39L24.48 82.53Q24.48 85.05 27.19 85.05L27.19 85.05L30.79 85.05L30.79 92.61L23.50 92.61Q14.14 92.61 14.14 83.34L14.14 83.34L14.14 62.73Q14.14 58.05 12.47 55.85Q10.81 53.64 7.12 53.64L7.12 53.64L5.86 53.64L5.86 46.17L7.12 46.17Q10.81 46.17 12.47 44.02Q14.14 41.85 14.14 37.09L14.14 37.09L14.14 16.56Q14.14 7.39 23.50 7.39L23.50 7.39L30.79 7.39L30.79 14.85L27.19 14.85Q24.48 14.85 24.48 17.38ZM65.53 30.16L65.53 40.05L55.09 40.05L55.09 31.23Q55.09 29.80 54.55 29.30Q54.01 28.80 52.56 28.80L52.56 28.80L48.34 28.80Q46.90 28.80 46.36 29.30Q45.81 29.80 45.81 31.23L45.81 31.23L45.81 68.13Q45.81 69.58 46.36 70.07Q46.90 70.56 48.34 70.56L48.34 70.56L52.56 70.56Q54.01 70.56 54.55 70.07Q55.09 69.58 55.09 68.13L55.09 68.13L55.09 59.49L65.53 59.49L65.53 69.22Q65.53 78.13 55.72 78.13L55.72 78.13L45.19 78.13Q35.38 78.13 35.38 69.22L35.38 69.22L35.38 30.16Q35.38 21.24 45.19 21.24L45.19 21.24L55.72 21.24Q65.53 21.24 65.53 30.16L65.53 30.16ZM75.43 38.88L75.43 38.88L75.43 17.38Q75.43 14.85 72.73 14.85L72.73 14.85L69.22 14.85L69.22 7.39L76.51 7.39Q85.78 7.39 85.78 16.56L85.78 16.56L85.78 37.09Q85.78 41.85 87.44 44.02Q89.11 46.17 92.89 46.17L92.89 46.17L94.15 46.17L94.15 53.64L92.89 53.64Q89.11 53.64 87.44 55.85Q85.78 58.05 85.78 62.73L85.78 62.73L85.78 83.34Q85.78 92.61 76.51 92.61L76.51 92.61L69.22 92.61L69.22 85.05L72.73 85.05Q75.43 85.05 75.43 82.53L75.43 82.53L75.43 60.39Q75.43 55.71 77.23 53.02Q79.03 50.31 82.36 49.95L82.36 49.95Q75.43 48.78 75.43 38.88Z"></path></svg>