<svg xmlns="http://www.w3.org/2000/svg" version="1.1" xmlns:xlink="http://www.w3.org/1999/xlink" xmlns:svgjs="http://svgjs.com/svgjs" width="1440" height="560" preserveAspectRatio="none" viewBox="0 0 1440 560"><g mask="url(&quot;#SvgjsMask4057&quot;)" fill="none"><rect width="1440" height="560" x="0" y="0" fill="url(#SvgjsLinearGradient4058)"></rect><path d="M-41.76 349.49L-41.76 349.49" stroke="rgba(0, 37, 124, 1)" stroke-width="1.5"></path><path d="M-41.76 349.49L-108.8 489.28" stroke="rgba(0, 37, 124, 1)" stroke-width="1.5"></path><path d="M-41.76 349.49L111.88 382.46" stroke="rgba(0, 37, 124, 1)" stroke-width="1.5"></path><path d="M-41.76 349.49L39.81 551.96" stroke="rgba(0, 37, 124, 1)" stroke-width="1.5"></path><path d="M-41.76 349.49L215.13 365.09" stroke="rgba(0, 37, 124, 1)" stroke-width="1.5"></path><path d="M-108.8 489.28L-108.8 489.28" stroke="rgba(0, 37, 124, 1)" stroke-width="1.5"></path><path d="M-108.8 489.28L-74 638.52" stroke="rgba(0, 37, 124, 1)" stroke-width="1.5"></path><path d="M-108.8 489.28L39.81 551.96" stroke="rgba(0, 37, 124, 1)" stroke-width="1.5"></path><path d="M-108.8 489.28L111.88 382.46" stroke="rgba(0, 37, 124, 1)" stroke-width="1.5"></path><path d="M-108.8 489.28L99.48 670.08" stroke="rgba(0, 37, 124, 1)" stroke-width="1.5"></path><path d="M-108.8 489.28L215.13 365.09" stroke="rgba(0, 37, 124, 1)" stroke-width="1.5"></path><path d="M-74 638.52L-74 638.52" stroke="rgba(0, 37, 124, 1)" stroke-width="1.5"></path><path d="M-74 638.52L39.81 551.96" stroke="rgba(0, 37, 124, 1)" stroke-width="1.5"></path><path d="M-74 638.52L99.48 670.08" stroke="rgba(0, 37, 124, 1)" stroke-width="1.5"></path><path d="M111.88 382.46L111.88 382.46" stroke="rgba(0, 37, 124, 1)" stroke-width="1.5"></path><path d="M111.88 382.46L215.13 365.09" stroke="rgba(0, 37, 124, 1)" stroke-width="1.5"></path><path d="M111.88 382.46L39.81 551.96" stroke="rgba(0, 37, 124, 1)" stroke-width="1.5"></path><path d="M111.88 382.46L248.67 538.21" stroke="rgba(0, 37, 124, 1)" stroke-width="1.5"></path><path d="M39.81 551.96L39.81 551.96" stroke="rgba(0, 37, 124, 1)" stroke-width="1.5"></path><path d="M39.81 551.96L99.48 670.08" stroke="rgba(0, 37, 124, 1)" stroke-width="1.5"></path><path d="M39.81 551.96L248.67 538.21" stroke="rgba(0, 37, 124, 1)" stroke-width="1.5"></path><path d="M99.48 670.08L99.48 670.08" stroke="rgba(0, 37, 124, 1)" stroke-width="1.5"></path><path d="M99.48 670.08L211.51 710.85" stroke="rgba(0, 37, 124, 1)" stroke-width="1.5"></path><path d="M215.13 365.09L215.13 365.09" stroke="rgba(0, 37, 124, 1)" stroke-width="1.5"></path><path d="M215.13 365.09L248.67 538.21" stroke="rgba(0, 37, 124, 1)" stroke-width="1.5"></path><path d="M215.13 365.09L410.04 407.46" stroke="rgba(0, 37, 124, 1)" stroke-width="1.5"></path><path d="M215.13 365.09L362.99 516.19" stroke="rgba(0, 37, 124, 1)" stroke-width="1.5"></path><path d="M248.67 538.21L248.67 538.21" stroke="rgba(0, 37, 124, 1)" stroke-width="1.5"></path><path d="M248.67 538.21L362.99 516.19" stroke="rgba(0, 37, 124, 1)" stroke-width="1.5"></path><path d="M248.67 538.21L211.51 710.85" stroke="rgba(0, 37, 124, 1)" stroke-width="1.5"></path><path d="M248.67 538.21L99.48 670.08" stroke="rgba(0, 37, 124, 1)" stroke-width="1.5"></path><path d="M211.51 710.85L211.51 710.85" stroke="rgba(0, 37, 124, 1)" stroke-width="1.5"></path><path d="M211.51 710.85L356.34 705.84" stroke="rgba(0, 37, 124, 1)" stroke-width="1.5"></path><path d="M410.04 407.46L410.04 407.46" stroke="rgba(0, 37, 124, 1)" stroke-width="1.5"></path><path d="M410.04 407.46L507.06 365.9" stroke="rgba(0, 37, 124, 1)" stroke-width="1.5"></path><path d="M410.04 407.46L362.99 516.19" stroke="rgba(0, 37, 124, 1)" stroke-width="1.5"></path><path d="M362.99 516.19L362.99 516.19" stroke="rgba(0, 37, 124, 1)" stroke-width="1.5"></path><path d="M356.34 705.84L356.34 705.84" stroke="rgba(0, 37, 124, 1)" stroke-width="1.5"></path><path d="M356.34 705.84L510.89 640.22" stroke="rgba(0, 37, 124, 1)" stroke-width="1.5"></path><path d="M356.34 705.84L362.99 516.19" stroke="rgba(0, 37, 124, 1)" stroke-width="1.5"></path><path d="M507.06 365.9L507.06 365.9" stroke="rgba(0, 37, 124, 1)" stroke-width="1.5"></path><path d="M507.06 365.9L510.26 489.89" stroke="rgba(0, 37, 124, 1)" stroke-width="1.5"></path><path d="M507.06 365.9L673.17 381.6" stroke="rgba(0, 37, 124, 1)" stroke-width="1.5"></path><path d="M507.06 365.9L652.07 505.16" stroke="rgba(0, 37, 124, 1)" stroke-width="1.5"></path><path d="M510.26 489.89L510.26 489.89" stroke="rgba(0, 37, 124, 1)" stroke-width="1.5"></path><path d="M510.26 489.89L410.04 407.46" stroke="rgba(0, 37, 124, 1)" stroke-width="1.5"></path><path d="M510.26 489.89L652.07 505.16" stroke="rgba(0, 37, 124, 1)" stroke-width="1.5"></path><path d="M510.26 489.89L362.99 516.19" stroke="rgba(0, 37, 124, 1)" stroke-width="1.5"></path><path d="M510.26 489.89L510.89 640.22" stroke="rgba(0, 37, 124, 1)" stroke-width="1.5"></path><path d="M510.89 640.22L510.89 640.22" stroke="rgba(0, 37, 124, 1)" stroke-width="1.5"></path><path d="M510.89 640.22L681.5 699.09" stroke="rgba(0, 37, 124, 1)" stroke-width="1.5"></path><path d="M681.88 218.71L681.88 218.71" stroke="rgba(0, 37, 124, 1)" stroke-width="1.5"></path><path d="M681.88 218.71L673.17 381.6" stroke="rgba(0, 37, 124, 1)" stroke-width="1.5"></path><path d="M681.88 218.71L848.29 256.48" stroke="rgba(0, 37, 124, 1)" stroke-width="1.5"></path><path d="M673.17 381.6L673.17 381.6" stroke="rgba(0, 37, 124, 1)" stroke-width="1.5"></path><path d="M673.17 381.6L652.07 505.16" stroke="rgba(0, 37, 124, 1)" stroke-width="1.5"></path><path d="M673.17 381.6L802.85 369.83" stroke="rgba(0, 37, 124, 1)" stroke-width="1.5"></path><path d="M652.07 505.16L652.07 505.16" stroke="rgba(0, 37, 124, 1)" stroke-width="1.5"></path><path d="M652.07 505.16L812.47 494.15" stroke="rgba(0, 37, 124, 1)" stroke-width="1.5"></path><path d="M652.07 505.16L510.89 640.22" stroke="rgba(0, 37, 124, 1)" stroke-width="1.5"></path><path d="M652.07 505.16L681.5 699.09" stroke="rgba(0, 37, 124, 1)" stroke-width="1.5"></path><path d="M681.5 699.09L681.5 699.09" stroke="rgba(0, 37, 124, 1)" stroke-width="1.5"></path><path d="M681.5 699.09L790.31 672.75" stroke="rgba(0, 37, 124, 1)" stroke-width="1.5"></path><path d="M848.29 256.48L848.29 256.48" stroke="rgba(0, 37, 124, 1)" stroke-width="1.5"></path><path d="M848.29 256.48L953.28 196.05" stroke="rgba(0, 37, 124, 1)" stroke-width="1.5"></path><path d="M848.29 256.48L802.85 369.83" stroke="rgba(0, 37, 124, 1)" stroke-width="1.5"></path><path d="M802.85 369.83L802.85 369.83" stroke="rgba(0, 37, 124, 1)" stroke-width="1.5"></path><path d="M802.85 369.83L812.47 494.15" stroke="rgba(0, 37, 124, 1)" stroke-width="1.5"></path><path d="M802.85 369.83L977.56 387.51" stroke="rgba(0, 37, 124, 1)" stroke-width="1.5"></path><path d="M812.47 494.15L812.47 494.15" stroke="rgba(0, 37, 124, 1)" stroke-width="1.5"></path><path d="M812.47 494.15L972.79 527.9" stroke="rgba(0, 37, 124, 1)" stroke-width="1.5"></path><path d="M812.47 494.15L673.17 381.6" stroke="rgba(0, 37, 124, 1)" stroke-width="1.5"></path><path d="M812.47 494.15L790.31 672.75" stroke="rgba(0, 37, 124, 1)" stroke-width="1.5"></path><path d="M812.47 494.15L977.56 387.51" stroke="rgba(0, 37, 124, 1)" stroke-width="1.5"></path><path d="M790.31 672.75L790.31 672.75" stroke="rgba(0, 37, 124, 1)" stroke-width="1.5"></path><path d="M952.28 -71.34L952.28 -71.34" stroke="rgba(0, 37, 124, 1)" stroke-width="1.5"></path><path d="M952.28 -71.34L976.07 73.04" stroke="rgba(0, 37, 124, 1)" stroke-width="1.5"></path><path d="M952.28 -71.34L1110.15 -98.33" stroke="rgba(0, 37, 124, 1)" stroke-width="1.5"></path><path d="M976.07 73.04L976.07 73.04" stroke="rgba(0, 37, 124, 1)" stroke-width="1.5"></path><path d="M976.07 73.04L953.28 196.05" stroke="rgba(0, 37, 124, 1)" stroke-width="1.5"></path><path d="M953.28 196.05L953.28 196.05" stroke="rgba(0, 37, 124, 1)" stroke-width="1.5"></path><path d="M953.28 196.05L1090.51 192.53" stroke="rgba(0, 37, 124, 1)" stroke-width="1.5"></path><path d="M953.28 196.05L977.56 387.51" stroke="rgba(0, 37, 124, 1)" stroke-width="1.5"></path><path d="M953.28 196.05L1102.34 337.64" stroke="rgba(0, 37, 124, 1)" stroke-width="1.5"></path><path d="M953.28 196.05L1133.84 55.69" stroke="rgba(0, 37, 124, 1)" stroke-width="1.5"></path><path d="M977.56 387.51L977.56 387.51" stroke="rgba(0, 37, 124, 1)" stroke-width="1.5"></path><path d="M977.56 387.51L1102.34 337.64" stroke="rgba(0, 37, 124, 1)" stroke-width="1.5"></path><path d="M977.56 387.51L972.79 527.9" stroke="rgba(0, 37, 124, 1)" stroke-width="1.5"></path><path d="M972.79 527.9L972.79 527.9" stroke="rgba(0, 37, 124, 1)" stroke-width="1.5"></path><path d="M972.79 527.9L972.07 678.03" stroke="rgba(0, 37, 124, 1)" stroke-width="1.5"></path><path d="M972.79 527.9L1144.65 510.88" stroke="rgba(0, 37, 124, 1)" stroke-width="1.5"></path><path d="M972.07 678.03L972.07 678.03" stroke="rgba(0, 37, 124, 1)" stroke-width="1.5"></path><path d="M972.07 678.03L1140.28 670.38" stroke="rgba(0, 37, 124, 1)" stroke-width="1.5"></path><path d="M972.07 678.03L790.31 672.75" stroke="rgba(0, 37, 124, 1)" stroke-width="1.5"></path><path d="M972.07 678.03L1144.65 510.88" stroke="rgba(0, 37, 124, 1)" stroke-width="1.5"></path><path d="M1110.15 -98.33L1110.15 -98.33" stroke="rgba(0, 37, 124, 1)" stroke-width="1.5"></path><path d="M1110.15 -98.33L1133.84 55.69" stroke="rgba(0, 37, 124, 1)" stroke-width="1.5"></path><path d="M1110.15 -98.33L1263.8 -46.99" stroke="rgba(0, 37, 124, 1)" stroke-width="1.5"></path><path d="M1110.15 -98.33L976.07 73.04" stroke="rgba(0, 37, 124, 1)" stroke-width="1.5"></path><path d="M1133.84 55.69L1133.84 55.69" stroke="rgba(0, 37, 124, 1)" stroke-width="1.5"></path><path d="M1133.84 55.69L1090.51 192.53" stroke="rgba(0, 37, 124, 1)" stroke-width="1.5"></path><path d="M1090.51 192.53L1090.51 192.53" stroke="rgba(0, 37, 124, 1)" stroke-width="1.5"></path><path d="M1102.34 337.64L1102.34 337.64" stroke="rgba(0, 37, 124, 1)" stroke-width="1.5"></path><path d="M1102.34 337.64L1090.51 192.53" stroke="rgba(0, 37, 124, 1)" stroke-width="1.5"></path><path d="M1102.34 337.64L1144.65 510.88" stroke="rgba(0, 37, 124, 1)" stroke-width="1.5"></path><path d="M1102.34 337.64L1302.2 356.27" stroke="rgba(0, 37, 124, 1)" stroke-width="1.5"></path><path d="M1102.34 337.64L972.79 527.9" stroke="rgba(0, 37, 124, 1)" stroke-width="1.5"></path><path d="M1144.65 510.88L1144.65 510.88" stroke="rgba(0, 37, 124, 1)" stroke-width="1.5"></path><path d="M1144.65 510.88L1243.7 551.97" stroke="rgba(0, 37, 124, 1)" stroke-width="1.5"></path><path d="M1144.65 510.88L1140.28 670.38" stroke="rgba(0, 37, 124, 1)" stroke-width="1.5"></path><path d="M1140.28 670.38L1140.28 670.38" stroke="rgba(0, 37, 124, 1)" stroke-width="1.5"></path><path d="M1140.28 670.38L1284.41 650.36" stroke="rgba(0, 37, 124, 1)" stroke-width="1.5"></path><path d="M1140.28 670.38L1243.7 551.97" stroke="rgba(0, 37, 124, 1)" stroke-width="1.5"></path><path d="M1263.8 -46.99L1263.8 -46.99" stroke="rgba(0, 37, 124, 1)" stroke-width="1.5"></path><path d="M1263.8 -46.99L1299.94 81.49" stroke="rgba(0, 37, 124, 1)" stroke-width="1.5"></path><path d="M1299.94 81.49L1299.94 81.49" stroke="rgba(0, 37, 124, 1)" stroke-width="1.5"></path><path d="M1299.94 81.49L1422.4 106.49" stroke="rgba(0, 37, 124, 1)" stroke-width="1.5"></path><path d="M1299.94 81.49L1304.22 211.67" stroke="rgba(0, 37, 124, 1)" stroke-width="1.5"></path><path d="M1299.94 81.49L1133.84 55.69" stroke="rgba(0, 37, 124, 1)" stroke-width="1.5"></path><path d="M1304.22 211.67L1304.22 211.67" stroke="rgba(0, 37, 124, 1)" stroke-width="1.5"></path><path d="M1304.22 211.67L1445.2 204.32" stroke="rgba(0, 37, 124, 1)" stroke-width="1.5"></path><path d="M1302.2 356.27L1302.2 356.27" stroke="rgba(0, 37, 124, 1)" stroke-width="1.5"></path><path d="M1302.2 356.27L1411.31 376.94" stroke="rgba(0, 37, 124, 1)" stroke-width="1.5"></path><path d="M1302.2 356.27L1304.22 211.67" stroke="rgba(0, 37, 124, 1)" stroke-width="1.5"></path><path d="M1302.2 356.27L1243.7 551.97" stroke="rgba(0, 37, 124, 1)" stroke-width="1.5"></path><path d="M1302.2 356.27L1445.2 204.32" stroke="rgba(0, 37, 124, 1)" stroke-width="1.5"></path><path d="M1243.7 551.97L1243.7 551.97" stroke="rgba(0, 37, 124, 1)" stroke-width="1.5"></path><path d="M1243.7 551.97L1284.41 650.36" stroke="rgba(0, 37, 124, 1)" stroke-width="1.5"></path><path d="M1243.7 551.97L1412.08 560.4" stroke="rgba(0, 37, 124, 1)" stroke-width="1.5"></path><path d="M1284.41 650.36L1284.41 650.36" stroke="rgba(0, 37, 124, 1)" stroke-width="1.5"></path><path d="M1284.41 650.36L1423.33 668.78" stroke="rgba(0, 37, 124, 1)" stroke-width="1.5"></path><path d="M1284.41 650.36L1412.08 560.4" stroke="rgba(0, 37, 124, 1)" stroke-width="1.5"></path><path d="M1427.15 -78.03L1427.15 -78.03" stroke="rgba(0, 37, 124, 1)" stroke-width="1.5"></path><path d="M1427.15 -78.03L1558.35 -45.2" stroke="rgba(0, 37, 124, 1)" stroke-width="1.5"></path><path d="M1427.15 -78.03L1263.8 -46.99" stroke="rgba(0, 37, 124, 1)" stroke-width="1.5"></path><path d="M1427.15 -78.03L1422.4 106.49" stroke="rgba(0, 37, 124, 1)" stroke-width="1.5"></path><path d="M1427.15 -78.03L1299.94 81.49" stroke="rgba(0, 37, 124, 1)" stroke-width="1.5"></path><path d="M1422.4 106.49L1422.4 106.49" stroke="rgba(0, 37, 124, 1)" stroke-width="1.5"></path><path d="M1422.4 106.49L1445.2 204.32" stroke="rgba(0, 37, 124, 1)" stroke-width="1.5"></path><path d="M1445.2 204.32L1445.2 204.32" stroke="rgba(0, 37, 124, 1)" stroke-width="1.5"></path><path d="M1445.2 204.32L1568.31 235.22" stroke="rgba(0, 37, 124, 1)" stroke-width="1.5"></path><path d="M1411.31 376.94L1411.31 376.94" stroke="rgba(0, 37, 124, 1)" stroke-width="1.5"></path><path d="M1411.31 376.94L1445.2 204.32" stroke="rgba(0, 37, 124, 1)" stroke-width="1.5"></path><path d="M1411.31 376.94L1588.99 404.27" stroke="rgba(0, 37, 124, 1)" stroke-width="1.5"></path><path d="M1411.31 376.94L1412.08 560.4" stroke="rgba(0, 37, 124, 1)" stroke-width="1.5"></path><path d="M1411.31 376.94L1304.22 211.67" stroke="rgba(0, 37, 124, 1)" stroke-width="1.5"></path><path d="M1412.08 560.4L1412.08 560.4" stroke="rgba(0, 37, 124, 1)" stroke-width="1.5"></path><path d="M1412.08 560.4L1423.33 668.78" stroke="rgba(0, 37, 124, 1)" stroke-width="1.5"></path><path d="M1423.33 668.78L1423.33 668.78" stroke="rgba(0, 37, 124, 1)" stroke-width="1.5"></path><path d="M1423.33 668.78L1611.58 662.75" stroke="rgba(0, 37, 124, 1)" stroke-width="1.5"></path><path d="M1558.35 -45.2L1558.35 -45.2" stroke="rgba(0, 37, 124, 1)" stroke-width="1.5"></path><path d="M1558.35 -45.2L1564.92 94.17" stroke="rgba(0, 37, 124, 1)" stroke-width="1.5"></path><path d="M1558.35 -45.2L1422.4 106.49" stroke="rgba(0, 37, 124, 1)" stroke-width="1.5"></path><path d="M1558.35 -45.2L1445.2 204.32" stroke="rgba(0, 37, 124, 1)" stroke-width="1.5"></path><path d="M1564.92 94.17L1564.92 94.17" stroke="rgba(0, 37, 124, 1)" stroke-width="1.5"></path><path d="M1564.92 94.17L1568.31 235.22" stroke="rgba(0, 37, 124, 1)" stroke-width="1.5"></path><path d="M1564.92 94.17L1422.4 106.49" stroke="rgba(0, 37, 124, 1)" stroke-width="1.5"></path><path d="M1564.92 94.17L1445.2 204.32" stroke="rgba(0, 37, 124, 1)" stroke-width="1.5"></path><path d="M1564.92 94.17L1427.15 -78.03" stroke="rgba(0, 37, 124, 1)" stroke-width="1.5"></path><path d="M1568.31 235.22L1568.31 235.22" stroke="rgba(0, 37, 124, 1)" stroke-width="1.5"></path><path d="M1588.99 404.27L1588.99 404.27" stroke="rgba(0, 37, 124, 1)" stroke-width="1.5"></path><path d="M1588.99 404.27L1598.49 551.72" stroke="rgba(0, 37, 124, 1)" stroke-width="1.5"></path><path d="M1588.99 404.27L1568.31 235.22" stroke="rgba(0, 37, 124, 1)" stroke-width="1.5"></path><path d="M1588.99 404.27L1412.08 560.4" stroke="rgba(0, 37, 124, 1)" stroke-width="1.5"></path><path d="M1598.49 551.72L1598.49 551.72" stroke="rgba(0, 37, 124, 1)" stroke-width="1.5"></path><path d="M1598.49 551.72L1611.58 662.75" stroke="rgba(0, 37, 124, 1)" stroke-width="1.5"></path><path d="M1598.49 551.72L1412.08 560.4" stroke="rgba(0, 37, 124, 1)" stroke-width="1.5"></path><path d="M1598.49 551.72L1423.33 668.78" stroke="rgba(0, 37, 124, 1)" stroke-width="1.5"></path><path d="M1611.58 662.75L1611.58 662.75" stroke="rgba(0, 37, 124, 1)" stroke-width="1.5"></path><path d="M1611.58 662.75L1412.08 560.4" stroke="rgba(0, 37, 124, 1)" stroke-width="1.5"></path><circle r="5" cx="-41.76" cy="349.49" fill="rgba(0, 37, 124, 1)"></circle><circle r="5" cx="-108.8" cy="489.28" fill="rgba(0, 37, 124, 1)"></circle><circle r="5" cx="-74" cy="638.52" fill="rgba(0, 37, 124, 1)"></circle><circle r="5" cx="111.88" cy="382.46" fill="rgba(0, 37, 124, 1)"></circle><circle r="5" cx="39.81" cy="551.96" fill="rgba(0, 37, 124, 1)"></circle><circle r="5" cx="99.48" cy="670.08" fill="rgba(0, 37, 124, 1)"></circle><circle r="5" cx="215.13" cy="365.09" fill="rgba(0, 37, 124, 1)"></circle><circle r="5" cx="248.67" cy="538.21" fill="rgba(0, 37, 124, 1)"></circle><circle r="5" cx="211.51" cy="710.85" fill="rgba(0, 37, 124, 1)"></circle><circle r="5" cx="410.04" cy="407.46" fill="rgba(0, 37, 124, 1)"></circle><circle r="5" cx="362.99" cy="516.19" fill="rgba(0, 37, 124, 1)"></circle><circle r="5" cx="356.34" cy="705.84" fill="rgba(0, 37, 124, 1)"></circle><circle r="5" cx="507.06" cy="365.9" fill="rgba(0, 37, 124, 1)"></circle><circle r="5" cx="510.26" cy="489.89" fill="rgba(0, 37, 124, 1)"></circle><circle r="5" cx="510.89" cy="640.22" fill="rgba(0, 37, 124, 1)"></circle><circle r="5" cx="681.88" cy="218.71" fill="rgba(0, 37, 124, 1)"></circle><circle r="5" cx="673.17" cy="381.6" fill="rgba(0, 37, 124, 1)"></circle><circle r="5" cx="652.07" cy="505.16" fill="rgba(0, 37, 124, 1)"></circle><circle r="5" cx="681.5" cy="699.09" fill="rgba(0, 37, 124, 1)"></circle><circle r="5" cx="848.29" cy="256.48" fill="rgba(0, 37, 124, 1)"></circle><circle r="5" cx="802.85" cy="369.83" fill="rgba(0, 37, 124, 1)"></circle><circle r="5" cx="812.47" cy="494.15" fill="rgba(0, 37, 124, 1)"></circle><circle r="5" cx="790.31" cy="672.75" fill="rgba(0, 37, 124, 1)"></circle><circle r="5" cx="952.28" cy="-71.34" fill="rgba(0, 37, 124, 1)"></circle><circle r="5" cx="976.07" cy="73.04" fill="rgba(0, 37, 124, 1)"></circle><circle r="5" cx="953.28" cy="196.05" fill="rgba(0, 37, 124, 1)"></circle><circle r="5" cx="977.56" cy="387.51" fill="rgba(0, 37, 124, 1)"></circle><circle r="5" cx="972.79" cy="527.9" fill="rgba(0, 37, 124, 1)"></circle><circle r="5" cx="972.07" cy="678.03" fill="rgba(0, 37, 124, 1)"></circle><circle r="5" cx="1110.15" cy="-98.33" fill="rgba(0, 37, 124, 1)"></circle><circle r="5" cx="1133.84" cy="55.69" fill="rgba(0, 37, 124, 1)"></circle><circle r="5" cx="1090.51" cy="192.53" fill="rgba(0, 37, 124, 1)"></circle><circle r="5" cx="1102.34" cy="337.64" fill="rgba(0, 37, 124, 1)"></circle><circle r="5" cx="1144.65" cy="510.88" fill="rgba(0, 37, 124, 1)"></circle><circle r="5" cx="1140.28" cy="670.38" fill="rgba(0, 37, 124, 1)"></circle><circle r="5" cx="1263.8" cy="-46.99" fill="rgba(0, 37, 124, 1)"></circle><circle r="5" cx="1299.94" cy="81.49" fill="rgba(0, 37, 124, 1)"></circle><circle r="5" cx="1304.22" cy="211.67" fill="rgba(0, 37, 124, 1)"></circle><circle r="5" cx="1302.2" cy="356.27" fill="rgba(0, 37, 124, 1)"></circle><circle r="5" cx="1243.7" cy="551.97" fill="rgba(0, 37, 124, 1)"></circle><circle r="5" cx="1284.41" cy="650.36" fill="rgba(0, 37, 124, 1)"></circle><circle r="5" cx="1427.15" cy="-78.03" fill="rgba(0, 37, 124, 1)"></circle><circle r="5" cx="1422.4" cy="106.49" fill="rgba(0, 37, 124, 1)"></circle><circle r="5" cx="1445.2" cy="204.32" fill="rgba(0, 37, 124, 1)"></circle><circle r="5" cx="1411.31" cy="376.94" fill="rgba(0, 37, 124, 1)"></circle><circle r="5" cx="1412.08" cy="560.4" fill="rgba(0, 37, 124, 1)"></circle><circle r="5" cx="1423.33" cy="668.78" fill="rgba(0, 37, 124, 1)"></circle><circle r="5" cx="1558.35" cy="-45.2" fill="rgba(0, 37, 124, 1)"></circle><circle r="5" cx="1564.92" cy="94.17" fill="rgba(0, 37, 124, 1)"></circle><circle r="5" cx="1568.31" cy="235.22" fill="rgba(0, 37, 124, 1)"></circle><circle r="5" cx="1588.99" cy="404.27" fill="rgba(0, 37, 124, 1)"></circle><circle r="5" cx="1598.49" cy="551.72" fill="rgba(0, 37, 124, 1)"></circle><circle r="5" cx="1611.58" cy="662.75" fill="rgba(0, 37, 124, 1)"></circle><path d="M61.77 518.32L61.77 518.32" stroke="hsl(206.5, 100%, 95.3%)" stroke-width="1.5"></path><path d="M61.77 518.32L190.53 507.92" stroke="hsl(206.5, 100%, 95.3%)" stroke-width="1.5"></path><path d="M61.77 518.32L-91.76 489.12" stroke="hsl(206.5, 100%, 95.3%)" stroke-width="1.5"></path><path d="M61.77 518.32L43.5 692.62" stroke="hsl(206.5, 100%, 95.3%)" stroke-width="1.5"></path><path d="M61.77 518.32L188.08 707.12" stroke="hsl(206.5, 100%, 95.3%)" stroke-width="1.5"></path><path d="M61.77 518.32L-107.18 676.82" stroke="hsl(206.5, 100%, 95.3%)" stroke-width="1.5"></path><path d="M43.5 692.62L43.5 692.62" stroke="hsl(206.5, 100%, 95.3%)" stroke-width="1.5"></path><path d="M43.5 692.62L188.08 707.12" stroke="hsl(206.5, 100%, 95.3%)" stroke-width="1.5"></path><path d="M43.5 692.62L-107.18 676.82" stroke="hsl(206.5, 100%, 95.3%)" stroke-width="1.5"></path><path d="M43.5 692.62L190.53 507.92" stroke="hsl(206.5, 100%, 95.3%)" stroke-width="1.5"></path><path d="M515.59 529.35L515.59 529.35" stroke="hsl(206.5, 100%, 95.3%)" stroke-width="1.5"></path><path d="M515.59 529.35L665.11 526.68" stroke="hsl(206.5, 100%, 95.3%)" stroke-width="1.5"></path><path d="M515.59 529.35L503.13 689.72" stroke="hsl(206.5, 100%, 95.3%)" stroke-width="1.5"></path><path d="M515.59 529.35L345.76 518.3" stroke="hsl(206.5, 100%, 95.3%)" stroke-width="1.5"></path><path d="M515.59 529.35L406.62 685.13" stroke="hsl(206.5, 100%, 95.3%)" stroke-width="1.5"></path><path d="M515.59 529.35L706.84 665.35" stroke="hsl(206.5, 100%, 95.3%)" stroke-width="1.5"></path><path d="M1098.03 517.78L1098.03 517.78" stroke="hsl(206.5, 100%, 95.3%)" stroke-width="1.5"></path><path d="M1098.03 517.78L939.54 544" stroke="hsl(206.5, 100%, 95.3%)" stroke-width="1.5"></path><path d="M1098.03 517.78L999.41 389.08" stroke="hsl(206.5, 100%, 95.3%)" stroke-width="1.5"></path><path d="M1309.36 489.43L1309.36 489.43" stroke="hsl(206.5, 100%, 95.3%)" stroke-width="1.5"></path><path d="M1309.36 489.43L1260.76 407.95" stroke="hsl(206.5, 100%, 95.3%)" stroke-width="1.5"></path><path d="M1309.36 489.43L1431.68 493.4" stroke="hsl(206.5, 100%, 95.3%)" stroke-width="1.5"></path><path d="M1309.36 489.43L1414.3 398.97" stroke="hsl(206.5, 100%, 95.3%)" stroke-width="1.5"></path><path d="M1309.36 489.43L1287.24 678.2" stroke="hsl(206.5, 100%, 95.3%)" stroke-width="1.5"></path><path d="M1309.36 489.43L1438.69 656.38" stroke="hsl(206.5, 100%, 95.3%)" stroke-width="1.5"></path><path d="M1309.36 489.43L1098.03 517.78" stroke="hsl(206.5, 100%, 95.3%)" stroke-width="1.5"></path><path d="M1453.32 -104.15L1453.32 -104.15" stroke="hsl(206.5, 100%, 95.3%)" stroke-width="1.5"></path><path d="M1453.32 -104.15L1554.22 -109.36" stroke="hsl(206.5, 100%, 95.3%)" stroke-width="1.5"></path><path d="M1453.32 -104.15L1388.91 51.22" stroke="hsl(206.5, 100%, 95.3%)" stroke-width="1.5"></path><path d="M1453.32 -104.15L1251.93 -97.03" stroke="hsl(206.5, 100%, 95.3%)" stroke-width="1.5"></path><path d="M1453.32 -104.15L1288.25 48.51" stroke="hsl(206.5, 100%, 95.3%)" stroke-width="1.5"></path><path d="M1453.32 -104.15L1580.52 86.91" stroke="hsl(206.5, 100%, 95.3%)" stroke-width="1.5"></path><path d="M1453.32 -104.15L1592.64 204.64" stroke="hsl(206.5, 100%, 95.3%)" stroke-width="1.5"></path><path d="M1414.3 398.97L1414.3 398.97" stroke="hsl(206.5, 100%, 95.3%)" stroke-width="1.5"></path><path d="M1414.3 398.97L1431.68 493.4" stroke="hsl(206.5, 100%, 95.3%)" stroke-width="1.5"></path><path d="M1414.3 398.97L1260.76 407.95" stroke="hsl(206.5, 100%, 95.3%)" stroke-width="1.5"></path><path d="M1414.3 398.97L1540.07 519.76" stroke="hsl(206.5, 100%, 95.3%)" stroke-width="1.5"></path><path d="M1414.3 398.97L1298.83 262.41" stroke="hsl(206.5, 100%, 95.3%)" stroke-width="1.5"></path><path d="M1438.69 656.38L1438.69 656.38" stroke="hsl(206.5, 100%, 95.3%)" stroke-width="1.5"></path><path d="M1438.69 656.38L1579.71 648.79" stroke="hsl(206.5, 100%, 95.3%)" stroke-width="1.5"></path><path d="M1438.69 656.38L1287.24 678.2" stroke="hsl(206.5, 100%, 95.3%)" stroke-width="1.5"></path><path d="M1438.69 656.38L1431.68 493.4" stroke="hsl(206.5, 100%, 95.3%)" stroke-width="1.5"></path><path d="M1438.69 656.38L1540.07 519.76" stroke="hsl(206.5, 100%, 95.3%)" stroke-width="1.5"></path><path d="M1438.69 656.38L1414.3 398.97" stroke="hsl(206.5, 100%, 95.3%)" stroke-width="1.5"></path><path d="M1540.07 519.76L1540.07 519.76" stroke="hsl(206.5, 100%, 95.3%)" stroke-width="1.5"></path><path d="M1540.07 519.76L1431.68 493.4" stroke="hsl(206.5, 100%, 95.3%)" stroke-width="1.5"></path><path d="M1540.07 519.76L1579.71 648.79" stroke="hsl(206.5, 100%, 95.3%)" stroke-width="1.5"></path><path d="M-91.76 489.12L-91.76 489.12" stroke="hsl(206.5, 100%, 95.3%)" stroke-width="1.5"></path><path d="M-91.76 489.12L-107.18 676.82" stroke="hsl(206.5, 100%, 95.3%)" stroke-width="1.5"></path><path d="M-91.76 489.12L43.5 692.62" stroke="hsl(206.5, 100%, 95.3%)" stroke-width="1.5"></path><path d="M-91.76 489.12L190.53 507.92" stroke="hsl(206.5, 100%, 95.3%)" stroke-width="1.5"></path><path d="M-91.76 489.12L188.08 707.12" stroke="hsl(206.5, 100%, 95.3%)" stroke-width="1.5"></path><path d="M-107.18 676.82L-107.18 676.82" stroke="hsl(206.5, 100%, 95.3%)" stroke-width="1.5"></path><path d="M-107.18 676.82L188.08 707.12" stroke="hsl(206.5, 100%, 95.3%)" stroke-width="1.5"></path><path d="M-107.18 676.82L190.53 507.92" stroke="hsl(206.5, 100%, 95.3%)" stroke-width="1.5"></path><path d="M-107.18 676.82L345.76 518.3" stroke="hsl(206.5, 100%, 95.3%)" stroke-width="1.5"></path><path d="M190.53 507.92L190.53 507.92" stroke="hsl(206.5, 100%, 95.3%)" stroke-width="1.5"></path><path d="M190.53 507.92L345.76 518.3" stroke="hsl(206.5, 100%, 95.3%)" stroke-width="1.5"></path><path d="M190.53 507.92L188.08 707.12" stroke="hsl(206.5, 100%, 95.3%)" stroke-width="1.5"></path><path d="M190.53 507.92L406.62 685.13" stroke="hsl(206.5, 100%, 95.3%)" stroke-width="1.5"></path><path d="M188.08 707.12L188.08 707.12" stroke="hsl(206.5, 100%, 95.3%)" stroke-width="1.5"></path><path d="M345.76 518.3L345.76 518.3" stroke="hsl(206.5, 100%, 95.3%)" stroke-width="1.5"></path><path d="M345.76 518.3L406.62 685.13" stroke="hsl(206.5, 100%, 95.3%)" stroke-width="1.5"></path><path d="M345.76 518.3L503.13 689.72" stroke="hsl(206.5, 100%, 95.3%)" stroke-width="1.5"></path><path d="M406.62 685.13L406.62 685.13" stroke="hsl(206.5, 100%, 95.3%)" stroke-width="1.5"></path><path d="M406.62 685.13L503.13 689.72" stroke="hsl(206.5, 100%, 95.3%)" stroke-width="1.5"></path><path d="M406.62 685.13L188.08 707.12" stroke="hsl(206.5, 100%, 95.3%)" stroke-width="1.5"></path><path d="M503.13 689.72L503.13 689.72" stroke="hsl(206.5, 100%, 95.3%)" stroke-width="1.5"></path><path d="M503.13 689.72L706.84 665.35" stroke="hsl(206.5, 100%, 95.3%)" stroke-width="1.5"></path><path d="M665.11 526.68L665.11 526.68" stroke="hsl(206.5, 100%, 95.3%)" stroke-width="1.5"></path><path d="M665.11 526.68L793.17 492.47" stroke="hsl(206.5, 100%, 95.3%)" stroke-width="1.5"></path><path d="M665.11 526.68L706.84 665.35" stroke="hsl(206.5, 100%, 95.3%)" stroke-width="1.5"></path><path d="M665.11 526.68L789.77 640.86" stroke="hsl(206.5, 100%, 95.3%)" stroke-width="1.5"></path><path d="M665.11 526.68L503.13 689.72" stroke="hsl(206.5, 100%, 95.3%)" stroke-width="1.5"></path><path d="M665.11 526.68L813.44 346.26" stroke="hsl(206.5, 100%, 95.3%)" stroke-width="1.5"></path><path d="M706.84 665.35L706.84 665.35" stroke="hsl(206.5, 100%, 95.3%)" stroke-width="1.5"></path><path d="M706.84 665.35L789.77 640.86" stroke="hsl(206.5, 100%, 95.3%)" stroke-width="1.5"></path><path d="M706.84 665.35L793.17 492.47" stroke="hsl(206.5, 100%, 95.3%)" stroke-width="1.5"></path><path d="M813.44 346.26L813.44 346.26" stroke="hsl(206.5, 100%, 95.3%)" stroke-width="1.5"></path><path d="M813.44 346.26L793.17 492.47" stroke="hsl(206.5, 100%, 95.3%)" stroke-width="1.5"></path><path d="M813.44 346.26L980.73 255.2" stroke="hsl(206.5, 100%, 95.3%)" stroke-width="1.5"></path><path d="M793.17 492.47L793.17 492.47" stroke="hsl(206.5, 100%, 95.3%)" stroke-width="1.5"></path><path d="M793.17 492.47L789.77 640.86" stroke="hsl(206.5, 100%, 95.3%)" stroke-width="1.5"></path><path d="M789.77 640.86L789.77 640.86" stroke="hsl(206.5, 100%, 95.3%)" stroke-width="1.5"></path><path d="M980.73 255.2L980.73 255.2" stroke="hsl(206.5, 100%, 95.3%)" stroke-width="1.5"></path><path d="M980.73 255.2L1102.95 206.19" stroke="hsl(206.5, 100%, 95.3%)" stroke-width="1.5"></path><path d="M980.73 255.2L999.41 389.08" stroke="hsl(206.5, 100%, 95.3%)" stroke-width="1.5"></path><path d="M980.73 255.2L1148.62 342.46" stroke="hsl(206.5, 100%, 95.3%)" stroke-width="1.5"></path><path d="M999.41 389.08L999.41 389.08" stroke="hsl(206.5, 100%, 95.3%)" stroke-width="1.5"></path><path d="M999.41 389.08L1148.62 342.46" stroke="hsl(206.5, 100%, 95.3%)" stroke-width="1.5"></path><path d="M999.41 389.08L939.54 544" stroke="hsl(206.5, 100%, 95.3%)" stroke-width="1.5"></path><path d="M939.54 544L939.54 544" stroke="hsl(206.5, 100%, 95.3%)" stroke-width="1.5"></path><path d="M939.54 544L965.16 640.44" stroke="hsl(206.5, 100%, 95.3%)" stroke-width="1.5"></path><path d="M939.54 544L793.17 492.47" stroke="hsl(206.5, 100%, 95.3%)" stroke-width="1.5"></path><path d="M965.16 640.44L965.16 640.44" stroke="hsl(206.5, 100%, 95.3%)" stroke-width="1.5"></path><path d="M965.16 640.44L1114.85 697.29" stroke="hsl(206.5, 100%, 95.3%)" stroke-width="1.5"></path><path d="M965.16 640.44L789.77 640.86" stroke="hsl(206.5, 100%, 95.3%)" stroke-width="1.5"></path><path d="M965.16 640.44L1098.03 517.78" stroke="hsl(206.5, 100%, 95.3%)" stroke-width="1.5"></path><path d="M965.16 640.44L793.17 492.47" stroke="hsl(206.5, 100%, 95.3%)" stroke-width="1.5"></path><path d="M965.16 640.44L999.41 389.08" stroke="hsl(206.5, 100%, 95.3%)" stroke-width="1.5"></path><path d="M1161.49 89.42L1161.49 89.42" stroke="hsl(206.5, 100%, 95.3%)" stroke-width="1.5"></path><path d="M1161.49 89.42L1102.95 206.19" stroke="hsl(206.5, 100%, 95.3%)" stroke-width="1.5"></path><path d="M1161.49 89.42L1288.25 48.51" stroke="hsl(206.5, 100%, 95.3%)" stroke-width="1.5"></path><path d="M1161.49 89.42L1251.93 -97.03" stroke="hsl(206.5, 100%, 95.3%)" stroke-width="1.5"></path><path d="M1161.49 89.42L1298.83 262.41" stroke="hsl(206.5, 100%, 95.3%)" stroke-width="1.5"></path><path d="M1161.49 89.42L1388.91 51.22" stroke="hsl(206.5, 100%, 95.3%)" stroke-width="1.5"></path><path d="M1102.95 206.19L1102.95 206.19" stroke="hsl(206.5, 100%, 95.3%)" stroke-width="1.5"></path><path d="M1102.95 206.19L1148.62 342.46" stroke="hsl(206.5, 100%, 95.3%)" stroke-width="1.5"></path><path d="M1102.95 206.19L1298.83 262.41" stroke="hsl(206.5, 100%, 95.3%)" stroke-width="1.5"></path><path d="M1102.95 206.19L999.41 389.08" stroke="hsl(206.5, 100%, 95.3%)" stroke-width="1.5"></path><path d="M1102.95 206.19L1288.25 48.51" stroke="hsl(206.5, 100%, 95.3%)" stroke-width="1.5"></path><path d="M1148.62 342.46L1148.62 342.46" stroke="hsl(206.5, 100%, 95.3%)" stroke-width="1.5"></path><path d="M1148.62 342.46L1260.76 407.95" stroke="hsl(206.5, 100%, 95.3%)" stroke-width="1.5"></path><path d="M1148.62 342.46L1298.83 262.41" stroke="hsl(206.5, 100%, 95.3%)" stroke-width="1.5"></path><path d="M1148.62 342.46L1098.03 517.78" stroke="hsl(206.5, 100%, 95.3%)" stroke-width="1.5"></path><path d="M1114.85 697.29L1114.85 697.29" stroke="hsl(206.5, 100%, 95.3%)" stroke-width="1.5"></path><path d="M1251.93 -97.03L1251.93 -97.03" stroke="hsl(206.5, 100%, 95.3%)" stroke-width="1.5"></path><path d="M1251.93 -97.03L1288.25 48.51" stroke="hsl(206.5, 100%, 95.3%)" stroke-width="1.5"></path><path d="M1251.93 -97.03L1388.91 51.22" stroke="hsl(206.5, 100%, 95.3%)" stroke-width="1.5"></path><path d="M1251.93 -97.03L1554.22 -109.36" stroke="hsl(206.5, 100%, 95.3%)" stroke-width="1.5"></path><path d="M1251.93 -97.03L1102.95 206.19" stroke="hsl(206.5, 100%, 95.3%)" stroke-width="1.5"></path><path d="M1288.25 48.51L1288.25 48.51" stroke="hsl(206.5, 100%, 95.3%)" stroke-width="1.5"></path><path d="M1288.25 48.51L1388.91 51.22" stroke="hsl(206.5, 100%, 95.3%)" stroke-width="1.5"></path><path d="M1298.83 262.41L1298.83 262.41" stroke="hsl(206.5, 100%, 95.3%)" stroke-width="1.5"></path><path d="M1298.83 262.41L1260.76 407.95" stroke="hsl(206.5, 100%, 95.3%)" stroke-width="1.5"></path><path d="M1298.83 262.41L1288.25 48.51" stroke="hsl(206.5, 100%, 95.3%)" stroke-width="1.5"></path><path d="M1260.76 407.95L1260.76 407.95" stroke="hsl(206.5, 100%, 95.3%)" stroke-width="1.5"></path><path d="M1260.76 407.95L1431.68 493.4" stroke="hsl(206.5, 100%, 95.3%)" stroke-width="1.5"></path><path d="M1287.24 678.2L1287.24 678.2" stroke="hsl(206.5, 100%, 95.3%)" stroke-width="1.5"></path><path d="M1287.24 678.2L1114.85 697.29" stroke="hsl(206.5, 100%, 95.3%)" stroke-width="1.5"></path><path d="M1287.24 678.2L1431.68 493.4" stroke="hsl(206.5, 100%, 95.3%)" stroke-width="1.5"></path><path d="M1388.91 51.22L1388.91 51.22" stroke="hsl(206.5, 100%, 95.3%)" stroke-width="1.5"></path><path d="M1388.91 51.22L1580.52 86.91" stroke="hsl(206.5, 100%, 95.3%)" stroke-width="1.5"></path><path d="M1388.91 51.22L1298.83 262.41" stroke="hsl(206.5, 100%, 95.3%)" stroke-width="1.5"></path><path d="M1388.91 51.22L1554.22 -109.36" stroke="hsl(206.5, 100%, 95.3%)" stroke-width="1.5"></path><path d="M1431.68 493.4L1431.68 493.4" stroke="hsl(206.5, 100%, 95.3%)" stroke-width="1.5"></path><path d="M1554.22 -109.36L1554.22 -109.36" stroke="hsl(206.5, 100%, 95.3%)" stroke-width="1.5"></path><path d="M1554.22 -109.36L1580.52 86.91" stroke="hsl(206.5, 100%, 95.3%)" stroke-width="1.5"></path><path d="M1580.52 86.91L1580.52 86.91" stroke="hsl(206.5, 100%, 95.3%)" stroke-width="1.5"></path><path d="M1580.52 86.91L1592.64 204.64" stroke="hsl(206.5, 100%, 95.3%)" stroke-width="1.5"></path><path d="M1592.64 204.64L1592.64 204.64" stroke="hsl(206.5, 100%, 95.3%)" stroke-width="1.5"></path><path d="M1592.64 204.64L1605.24 355.97" stroke="hsl(206.5, 100%, 95.3%)" stroke-width="1.5"></path><path d="M1592.64 204.64L1388.91 51.22" stroke="hsl(206.5, 100%, 95.3%)" stroke-width="1.5"></path><path d="M1605.24 355.97L1605.24 355.97" stroke="hsl(206.5, 100%, 95.3%)" stroke-width="1.5"></path><path d="M1579.71 648.79L1579.71 648.79" stroke="hsl(206.5, 100%, 95.3%)" stroke-width="1.5"></path><path d="M1579.71 648.79L1431.68 493.4" stroke="hsl(206.5, 100%, 95.3%)" stroke-width="1.5"></path><path d="M1579.71 648.79L1605.24 355.97" stroke="hsl(206.5, 100%, 95.3%)" stroke-width="1.5"></path><path d="M1579.71 648.79L1287.24 678.2" stroke="hsl(206.5, 100%, 95.3%)" stroke-width="1.5"></path><circle r="25" cx="61.77" cy="518.32" fill="url(#SvgjsRadialGradient4059)"></circle><circle r="25" cx="43.5" cy="692.62" fill="url(#SvgjsRadialGradient4059)"></circle><circle r="25" cx="515.59" cy="529.35" fill="url(#SvgjsRadialGradient4059)"></circle><circle r="25" cx="1098.03" cy="517.78" fill="url(#SvgjsRadialGradient4059)"></circle><circle r="25" cx="1309.36" cy="489.43" fill="url(#SvgjsRadialGradient4059)"></circle><circle r="25" cx="1453.32" cy="-104.15" fill="url(#SvgjsRadialGradient4059)"></circle><circle r="25" cx="1414.3" cy="398.97" fill="url(#SvgjsRadialGradient4059)"></circle><circle r="25" cx="1438.69" cy="656.38" fill="url(#SvgjsRadialGradient4059)"></circle><circle r="25" cx="1540.07" cy="519.76" fill="url(#SvgjsRadialGradient4059)"></circle><circle r="5" cx="-91.76" cy="489.12" fill="#bbe1ff"></circle><circle r="5" cx="-107.18" cy="676.82" fill="#bbe1ff"></circle><circle r="5" cx="190.53" cy="507.92" fill="#bbe1ff"></circle><circle r="5" cx="188.08" cy="707.12" fill="#bbe1ff"></circle><circle r="5" cx="345.76" cy="518.3" fill="#bbe1ff"></circle><circle r="5" cx="406.62" cy="685.13" fill="#bbe1ff"></circle><circle r="5" cx="503.13" cy="689.72" fill="#bbe1ff"></circle><circle r="5" cx="665.11" cy="526.68" fill="#bbe1ff"></circle><circle r="5" cx="706.84" cy="665.35" fill="#bbe1ff"></circle><circle r="5" cx="813.44" cy="346.26" fill="#bbe1ff"></circle><circle r="5" cx="793.17" cy="492.47" fill="#bbe1ff"></circle><circle r="5" cx="789.77" cy="640.86" fill="#bbe1ff"></circle><circle r="5" cx="980.73" cy="255.2" fill="#bbe1ff"></circle><circle r="5" cx="999.41" cy="389.08" fill="#bbe1ff"></circle><circle r="5" cx="939.54" cy="544" fill="#bbe1ff"></circle><circle r="5" cx="965.16" cy="640.44" fill="#bbe1ff"></circle><circle r="5" cx="1161.49" cy="89.42" fill="#bbe1ff"></circle><circle r="5" cx="1102.95" cy="206.19" fill="#bbe1ff"></circle><circle r="5" cx="1148.62" cy="342.46" fill="#bbe1ff"></circle><circle r="5" cx="1114.85" cy="697.29" fill="#bbe1ff"></circle><circle r="5" cx="1251.93" cy="-97.03" fill="#bbe1ff"></circle><circle r="5" cx="1288.25" cy="48.51" fill="#bbe1ff"></circle><circle r="5" cx="1298.83" cy="262.41" fill="#bbe1ff"></circle><circle r="5" cx="1260.76" cy="407.95" fill="#bbe1ff"></circle><circle r="5" cx="1287.24" cy="678.2" fill="#bbe1ff"></circle><circle r="5" cx="1388.91" cy="51.22" fill="#bbe1ff"></circle><circle r="5" cx="1431.68" cy="493.4" fill="#bbe1ff"></circle><circle r="5" cx="1554.22" cy="-109.36" fill="#bbe1ff"></circle><circle r="5" cx="1580.52" cy="86.91" fill="#bbe1ff"></circle><circle r="5" cx="1592.64" cy="204.64" fill="#bbe1ff"></circle><circle r="5" cx="1605.24" cy="355.97" fill="#bbe1ff"></circle><circle r="5" cx="1579.71" cy="648.79" fill="#bbe1ff"></circle></g><defs><mask id="SvgjsMask4057"><rect width="1440" height="560" fill="#ffffff"></rect></mask><linearGradient x1="84.72%" y1="139.29%" x2="15.28%" y2="-39.29%" gradientUnits="userSpaceOnUse" id="SvgjsLinearGradient4058"><stop stop-color="rgba(0, 111, 215, 1)" offset="0.24"></stop><stop stop-color="rgba(15, 157, 183, 1)" offset="1"></stop></linearGradient><radialGradient id="SvgjsRadialGradient4059"><stop stop-color="#ffffff" offset="0.1"></stop><stop stop-color="rgba(119, 195, 255, 1)" offset="0.2"></stop><stop stop-color="rgba(119, 195, 255, 0)" offset="1"></stop></radialGradient></defs></svg>